<svg width="149" height="149" viewBox="0 0 149 149" fill="none" xmlns="http://www.w3.org/2000/svg">
<path fill-rule="evenodd" clip-rule="evenodd" d="M75.5 108C94.0015 108 109 93.0015 109 74.5C109 55.9985 94.0015 41 75.5 41C56.9985 41 42 55.9985 42 74.5C42 93.0015 56.9985 108 75.5 108ZM75.5 113C96.763 113 114 95.763 114 74.5C114 53.237 96.763 36 75.5 36C54.237 36 37 53.237 37 74.5C37 95.763 54.237 113 75.5 113Z" fill="#FDB441"/>
<rect x="73" width="4" height="26" rx="2" fill="#FDB441"/>
<rect x="73" y="123" width="4" height="26" rx="2" fill="#FDB441"/>
<rect x="149" y="73" width="4" height="26" rx="2" transform="rotate(90 149 73)" fill="#FDB441"/>
<rect x="26" y="73" width="4" height="26" rx="2" transform="rotate(90 26 73)" fill="#FDB441"/>
<rect x="129.351" y="24.5458" width="4" height="26" rx="2" transform="rotate(48.9286 129.351 24.5458)" fill="#FDB441"/>
<rect x="36.6223" y="105.357" width="4" height="26" rx="2" transform="rotate(48.9286 36.6223 105.357)" fill="#FDB441"/>
<rect x="124.954" y="129.851" width="4" height="26" rx="2" transform="rotate(138.929 124.954 129.851)" fill="#FDB441"/>
<rect x="44.1433" y="37.1223" width="4" height="26" rx="2" transform="rotate(138.929 44.1433 37.1223)" fill="#FDB441"/>
</svg>
