<svg width="242" height="199" viewBox="0 0 242 199" fill="none" xmlns="http://www.w3.org/2000/svg">
<path fill-rule="evenodd" clip-rule="evenodd" d="M168.5 108C187.002 108 202 93.0015 202 74.5C202 55.9985 187.002 41 168.5 41C149.998 41 135 55.9985 135 74.5C135 93.0015 149.998 108 168.5 108ZM168.5 113C189.763 113 207 95.763 207 74.5C207 53.237 189.763 36 168.5 36C147.237 36 130 53.237 130 74.5C130 95.763 147.237 113 168.5 113Z" fill="#FDB441"/>
<rect x="166" width="4" height="26" rx="2" fill="#FDB441"/>
<rect x="242" y="73" width="4" height="26" rx="2" transform="rotate(90 242 73)" fill="#FDB441"/>
<rect x="119" y="73" width="4" height="26" rx="2" transform="rotate(90 119 73)" fill="#FDB441"/>
<rect x="222.351" y="24.5458" width="4" height="26" rx="2" transform="rotate(48.9286 222.351 24.5458)" fill="#FDB441"/>
<rect x="217.954" y="129.851" width="4" height="26" rx="2" transform="rotate(138.929 217.954 129.851)" fill="#FDB441"/>
<rect x="137.143" y="37.1223" width="4" height="26" rx="2" transform="rotate(138.929 137.143 37.1223)" fill="#FDB441"/>
<path fill-rule="evenodd" clip-rule="evenodd" d="M123.431 110.007C122.913 102.088 119.514 95.9959 114.496 91.4666C109.095 86.5904 101.896 83.5871 94.5778 81.8859C87.2431 80.1809 79.6424 79.7494 73.2878 80.1265C70.1083 80.3152 67.2077 80.7082 64.783 81.2598C62.404 81.8009 60.3183 82.5306 58.8906 83.4824C54.3843 86.4866 48.8609 90.2803 44.506 96.2848C40.3669 101.992 37.3613 109.577 37.0304 120.179C28.9152 120.45 22.4842 122.399 17.4153 125.476C11.9432 128.798 8.17926 133.36 5.6031 138.281C0.488872 148.051 0 159.347 0 165.646C0 179.191 12.8367 198.146 37 198.146H157.517L157.533 198.146C162.842 198.058 170.583 196.349 176.534 191.368C182.6 186.29 186.545 178.023 184.5 165.48C184.447 156.625 180.229 150.874 174.981 147.392C170.604 144.488 165.539 143.168 161.594 142.774C161.698 136.56 160.06 128.318 154.743 121.605C148.977 114.325 139.135 109.158 123.431 110.007ZM65.6702 85.1601C63.4554 85.6639 61.9317 86.2624 61.1094 86.8106C56.6157 89.8064 51.6391 93.2627 47.744 98.6332C43.8847 103.954 41 111.286 41 122.146V124.146H39C30.5526 124.146 24.2374 126.014 19.4909 128.895C14.7443 131.777 11.4457 135.745 9.1469 140.137C4.51113 148.992 4 159.446 4 165.646C4 177.102 15.1633 194.146 37 194.146H157.483C162.174 194.065 168.923 192.522 173.966 188.3C178.874 184.192 182.422 177.341 180.527 165.975L180.5 165.812V165.646C180.5 158.196 177.072 153.58 172.769 150.725C168.367 147.805 163.012 146.723 159.457 146.646L157.33 146.6L157.507 144.48C157.977 138.837 156.734 130.561 151.607 124.088C146.576 117.737 137.536 112.785 121.67 114.139L119.5 114.324V112.146C119.5 104.367 116.481 98.6472 111.816 94.4357C107.092 90.1713 100.604 87.3934 93.6722 85.782C86.7569 84.1745 79.5451 83.7623 73.5247 84.1195C70.5167 84.298 67.8392 84.6667 65.6702 85.1601Z" fill="white"/>
</svg>
