<svg width="216" height="147" viewBox="0 0 216 147" fill="none" xmlns="http://www.w3.org/2000/svg">
<path fill-rule="evenodd" clip-rule="evenodd" d="M109.974 67.72C109.512 60.6647 106.483 55.2367 102.013 51.2012C97.2008 46.8566 90.7866 44.1807 84.2663 42.6651C77.7313 41.146 70.9593 40.7615 65.2974 41.0975C62.4646 41.2656 59.8802 41.6158 57.7199 42.1072C55.6003 42.5893 53.742 43.2394 52.4699 44.0875C48.4549 46.7641 43.5337 50.1442 39.6536 55.4941C35.9658 60.5788 33.2879 67.3373 32.9931 76.7831C25.7626 77.0243 20.0328 78.761 15.5166 81.5026C10.6411 84.4622 7.2875 88.5273 4.99222 92.9119C0.435571 101.616 0 111.681 0 117.293C0 129.362 11.4371 146.25 32.966 146.25H140.343L140.358 146.25C145.088 146.171 151.985 144.649 157.287 140.21C162.691 135.686 166.206 128.321 164.384 117.145C164.338 109.256 160.579 104.132 155.903 101.03C152.003 98.442 147.491 97.2657 143.975 96.9149C144.068 91.3779 142.609 84.0345 137.872 78.0534C132.734 71.5676 123.966 66.9633 109.974 67.72ZM58.5104 45.5823C56.5371 46.0312 55.1795 46.5644 54.4468 47.0528C50.4431 49.722 46.0091 52.8014 42.5386 57.5865C39.1001 62.3274 36.5299 68.8601 36.5299 78.5362V80.3181H34.748C27.2216 80.3181 21.5949 81.982 17.3659 84.5491C13.1368 87.1163 10.1978 90.6522 8.14964 94.5648C4.01929 102.455 3.56389 111.769 3.56389 117.293C3.56389 127.5 13.5101 142.686 32.966 142.686H140.313C144.492 142.614 150.506 141.239 154.999 137.477C159.372 133.817 162.533 127.713 160.845 117.586L160.821 117.441V117.293C160.821 110.655 157.766 106.543 153.933 103.999C150.011 101.397 145.239 100.433 142.071 100.365L140.177 100.323L140.334 98.435C140.753 93.4068 139.646 86.0333 135.078 80.2662C130.596 74.6075 122.541 70.1951 108.405 71.4019L106.471 71.5669V69.6264C106.471 62.6952 103.782 57.5989 99.6251 53.8466C95.4164 50.0471 89.6355 47.5721 83.4594 46.1364C77.298 44.7042 70.8725 44.3368 65.5086 44.6551C62.8285 44.8142 60.4429 45.1427 58.5104 45.5823Z" fill="white"/>
<path fill-rule="evenodd" clip-rule="evenodd" d="M182.942 16.0997C182.664 11.851 180.841 8.58236 178.149 6.15222C175.251 3.53598 171.388 1.92457 167.462 1.01185C163.526 0.0970607 159.448 -0.134441 156.039 0.0678907C154.333 0.169125 152.777 0.379983 151.476 0.675901C150.199 0.96624 149.08 1.35774 148.314 1.8684C145.897 3.48027 142.933 5.51573 140.597 8.73733C138.376 11.7993 136.763 15.8692 136.586 21.5574C132.231 21.7026 128.781 22.7484 126.061 24.3993C123.125 26.1816 121.106 28.6296 119.724 31.2699C116.98 36.5116 116.718 42.5722 116.718 45.9522C116.718 53.2195 123.605 63.3896 136.569 63.3896H201.231L201.24 63.3894C204.088 63.342 208.241 62.4252 211.434 59.7525C214.688 57.028 216.805 52.5926 215.708 45.8628C215.68 41.1119 213.416 38.0265 210.601 36.1583C208.252 34.6001 205.535 33.8917 203.418 33.6805C203.474 30.3462 202.595 25.924 199.742 22.3223C196.649 18.4166 191.368 15.644 182.942 16.0997ZM151.952 2.76858C150.764 3.03888 149.946 3.35996 149.505 3.6541C147.094 5.26144 144.424 7.11586 142.334 9.99735C140.263 12.8523 138.715 16.7862 138.715 22.613V23.6861H137.642C133.11 23.6861 129.722 24.688 127.175 26.2339C124.628 27.7799 122.859 29.9092 121.625 32.2653C119.138 37.0166 118.864 42.6256 118.864 45.9522C118.864 52.0983 124.853 61.2434 136.569 61.2434H201.212C203.729 61.1997 207.35 60.3721 210.056 58.1068C212.69 55.9024 214.593 52.2268 213.577 46.1286L213.562 46.041V45.9522C213.562 41.9546 211.722 39.4782 209.414 37.9466C207.052 36.3796 204.179 35.7993 202.271 35.7578L201.131 35.733L201.225 34.5959C201.478 31.5679 200.811 27.1277 198.06 23.6549C195.361 20.2472 190.51 17.5901 181.998 18.3168L180.833 18.4162V17.2477C180.833 13.0738 179.214 10.0048 176.711 7.74523C174.176 5.45722 170.695 3.96679 166.976 3.10225C163.266 2.23977 159.396 2.01857 156.166 2.21026C154.552 2.30603 153.116 2.50386 151.952 2.76858Z" fill="white"/>
</svg>
