<svg width="200" height="200" viewBox="0 0 200 200" fill="none" xmlns="http://www.w3.org/2000/svg">
<path d="M172.706 128.888H88.9483C69.5263 128.888 64.401 111.624 64.2661 102.992C64.2661 94.3599 69.5263 76.6912 90.5668 75.0727C90.5668 54.3559 107.561 47.8279 116.058 47.1535C127.388 46.2094 150.047 49.1767 150.047 68.5987C174.324 68.5987 175.269 84.514 172.706 92.4717C179.315 90.988 192.937 92.3098 194.556 109.466C196.174 126.622 180.664 129.562 172.706 128.888Z" fill="url(#paint0_linear_5_116)"/>
<path d="M168.66 128.888H84.902C65.48 128.888 60.3547 111.624 60.2198 102.992C60.2198 94.3599 65.48 76.6912 86.5205 75.0727C86.5205 54.3559 103.515 47.8279 112.012 47.1535C123.342 46.2094 146.001 49.1767 146.001 68.5987C170.278 68.5987 171.222 84.514 168.66 92.4717C175.269 90.988 188.891 92.3098 190.509 109.466C192.128 126.622 176.617 129.562 168.66 128.888Z" fill="url(#paint1_linear_5_116)"/>
<path d="M118.486 152.356H34.7285C15.3064 152.356 10.1811 135.092 10.0463 126.46C10.0463 117.828 15.3064 100.16 36.347 98.5411C36.347 77.8242 53.3413 71.2962 61.8384 70.6219C73.1679 69.6777 95.827 72.645 95.827 92.067C120.105 92.067 121.049 107.982 118.486 115.94C125.095 114.456 138.717 115.778 140.336 132.934C141.954 150.09 126.444 153.031 118.486 152.356Z" fill="url(#paint2_linear_5_116)"/>
<path d="M114.44 152.356H30.6822C11.2601 152.356 6.13488 135.092 6 126.46C6 117.828 11.2601 100.16 32.3007 98.5411C32.3007 77.8242 49.295 71.2962 57.7921 70.6219C69.1217 69.6777 91.7807 72.645 91.7807 92.067C116.058 92.067 117.002 107.982 114.44 115.94C121.049 114.456 134.671 115.778 136.29 132.934C137.908 150.09 122.397 153.031 114.44 152.356Z" fill="url(#paint3_linear_5_116)"/>
<defs>
<linearGradient id="paint0_linear_5_116" x1="129.47" y1="47" x2="129.47" y2="128.975" gradientUnits="userSpaceOnUse">
<stop stop-color="white"/>
<stop offset="1" stop-color="#B8B8B8"/>
</linearGradient>
<linearGradient id="paint1_linear_5_116" x1="71.1448" y1="111.336" x2="168.255" y2="78.5608" gradientUnits="userSpaceOnUse">
<stop stop-color="#D3D3D3"/>
<stop offset="0.61" stop-color="white"/>
</linearGradient>
<linearGradient id="paint2_linear_5_116" x1="75.2498" y1="70.4683" x2="75.2498" y2="152.443" gradientUnits="userSpaceOnUse">
<stop stop-color="white"/>
<stop offset="1" stop-color="#B8B8B8"/>
</linearGradient>
<linearGradient id="paint3_linear_5_116" x1="16.9249" y1="134.804" x2="114.035" y2="102.029" gradientUnits="userSpaceOnUse">
<stop stop-color="#D3D3D3"/>
<stop offset="0.61" stop-color="white"/>
</linearGradient>
</defs>
</svg>
