<svg width="200" height="200" viewBox="0 0 200 200" fill="none" xmlns="http://www.w3.org/2000/svg">
<path d="M156 126.19H52.5C28.5 126.19 22.1667 104.856 22 94.1897C22 83.5231 28.5 61.6897 54.5 59.6897C54.5 34.0897 75.5 26.0231 86 25.1897C100 24.0231 128 27.6897 128 51.6897C158 51.6897 159.167 71.3564 156 81.1897C164.167 79.3564 181 80.9897 183 102.19C185 123.39 165.833 127.023 156 126.19Z" fill="url(#paint0_linear_12_2)"/>
<path d="M151 126.19H47.5C23.5 126.19 17.1667 104.856 17 94.1897C17 83.5231 23.5 61.6897 49.5 59.6897C49.5 34.0897 70.5 26.0231 81 25.1897C95 24.0231 123 27.6897 123 51.6897C153 51.6897 154.167 71.3564 151 81.1897C159.167 79.3564 176 80.9897 178 102.19C180 123.39 160.833 127.023 151 126.19Z" fill="url(#paint1_linear_12_2)"/>
<rect x="50" y="141" width="5" height="8" rx="2.5" transform="rotate(180 50 141)" fill="url(#paint2_linear_12_2)"/>
<rect x="50" y="141" width="5" height="8" rx="2.5" transform="rotate(180 50 141)" fill="black" fill-opacity="0.2"/>
<rect x="67" y="144" width="5" height="10" rx="2.5" transform="rotate(180 67 144)" fill="url(#paint3_linear_12_2)"/>
<rect x="67" y="144" width="5" height="10" rx="2.5" transform="rotate(180 67 144)" fill="black" fill-opacity="0.2"/>
<rect x="84" y="139" width="5" height="6" rx="2.5" transform="rotate(180 84 139)" fill="url(#paint4_linear_12_2)"/>
<rect x="84" y="139" width="5" height="6" rx="2.5" transform="rotate(180 84 139)" fill="black" fill-opacity="0.2"/>
<rect x="101" y="144" width="5" height="7" rx="2.5" transform="rotate(180 101 144)" fill="url(#paint5_linear_12_2)"/>
<rect x="101" y="144" width="5" height="7" rx="2.5" transform="rotate(180 101 144)" fill="black" fill-opacity="0.2"/>
<rect x="118" y="141" width="5" height="8" rx="2.5" transform="rotate(180 118 141)" fill="url(#paint6_linear_12_2)"/>
<rect x="118" y="141" width="5" height="8" rx="2.5" transform="rotate(180 118 141)" fill="black" fill-opacity="0.2"/>
<rect x="134" y="143" width="5" height="7" rx="2.5" transform="rotate(180 134 143)" fill="url(#paint7_linear_12_2)"/>
<rect x="134" y="143" width="5" height="7" rx="2.5" transform="rotate(180 134 143)" fill="black" fill-opacity="0.2"/>
<rect x="152" y="141" width="5" height="8" rx="2.5" transform="rotate(180 152 141)" fill="url(#paint8_linear_12_2)"/>
<rect x="152" y="141" width="5" height="8" rx="2.5" transform="rotate(180 152 141)" fill="black" fill-opacity="0.2"/>
<rect x="50" y="141" width="5" height="8" rx="2.5" transform="rotate(180 50 141)" fill="url(#paint9_linear_12_2)"/>
<rect x="50" y="141" width="5" height="8" rx="2.5" transform="rotate(180 50 141)" fill="black" fill-opacity="0.2"/>
<rect x="67" y="144" width="5" height="10" rx="2.5" transform="rotate(180 67 144)" fill="url(#paint10_linear_12_2)"/>
<rect x="67" y="144" width="5" height="10" rx="2.5" transform="rotate(180 67 144)" fill="black" fill-opacity="0.2"/>
<rect x="84" y="139" width="5" height="6" rx="2.5" transform="rotate(180 84 139)" fill="url(#paint11_linear_12_2)"/>
<rect x="84" y="139" width="5" height="6" rx="2.5" transform="rotate(180 84 139)" fill="black" fill-opacity="0.2"/>
<rect x="84" y="154" width="5" height="6" rx="2.5" transform="rotate(180 84 154)" fill="url(#paint12_linear_12_2)"/>
<rect x="84" y="154" width="5" height="6" rx="2.5" transform="rotate(180 84 154)" fill="black" fill-opacity="0.2"/>
<rect x="118" y="157" width="5" height="6" rx="2.5" transform="rotate(180 118 157)" fill="url(#paint13_linear_12_2)"/>
<rect x="118" y="157" width="5" height="6" rx="2.5" transform="rotate(180 118 157)" fill="black" fill-opacity="0.2"/>
<rect x="101" y="144" width="5" height="7" rx="2.5" transform="rotate(180 101 144)" fill="url(#paint14_linear_12_2)"/>
<rect x="101" y="144" width="5" height="7" rx="2.5" transform="rotate(180 101 144)" fill="black" fill-opacity="0.2"/>
<rect x="118" y="141" width="5" height="8" rx="2.5" transform="rotate(180 118 141)" fill="url(#paint15_linear_12_2)"/>
<rect x="118" y="141" width="5" height="8" rx="2.5" transform="rotate(180 118 141)" fill="black" fill-opacity="0.2"/>
<rect x="134" y="143" width="5" height="7" rx="2.5" transform="rotate(180 134 143)" fill="url(#paint16_linear_12_2)"/>
<rect x="134" y="143" width="5" height="7" rx="2.5" transform="rotate(180 134 143)" fill="black" fill-opacity="0.2"/>
<rect x="152" y="141" width="5" height="8" rx="2.5" transform="rotate(180 152 141)" fill="url(#paint17_linear_12_2)"/>
<rect x="152" y="141" width="5" height="8" rx="2.5" transform="rotate(180 152 141)" fill="black" fill-opacity="0.2"/>
<defs>
<linearGradient id="paint0_linear_12_2" x1="102.573" y1="25" x2="102.573" y2="126.297" gradientUnits="userSpaceOnUse">
<stop stop-color="white"/>
<stop offset="1" stop-color="#B8B8B8"/>
</linearGradient>
<linearGradient id="paint1_linear_12_2" x1="30.5" y1="104.5" x2="150.5" y2="64" gradientUnits="userSpaceOnUse">
<stop stop-color="#D3D3D3"/>
<stop offset="0.61" stop-color="white"/>
</linearGradient>
<linearGradient id="paint2_linear_12_2" x1="52.5" y1="141" x2="52.5" y2="149" gradientUnits="userSpaceOnUse">
<stop stop-color="#BEBEBE"/>
<stop offset="1" stop-color="white"/>
</linearGradient>
<linearGradient id="paint3_linear_12_2" x1="69.5" y1="144" x2="69.5" y2="154" gradientUnits="userSpaceOnUse">
<stop stop-color="#BEBEBE"/>
<stop offset="1" stop-color="white"/>
</linearGradient>
<linearGradient id="paint4_linear_12_2" x1="86.5" y1="139" x2="86.5" y2="145" gradientUnits="userSpaceOnUse">
<stop stop-color="#BEBEBE"/>
<stop offset="1" stop-color="white"/>
</linearGradient>
<linearGradient id="paint5_linear_12_2" x1="103.5" y1="144" x2="103.5" y2="151" gradientUnits="userSpaceOnUse">
<stop stop-color="#BEBEBE"/>
<stop offset="1" stop-color="white"/>
</linearGradient>
<linearGradient id="paint6_linear_12_2" x1="120.5" y1="141" x2="120.5" y2="149" gradientUnits="userSpaceOnUse">
<stop stop-color="#BEBEBE"/>
<stop offset="1" stop-color="white"/>
</linearGradient>
<linearGradient id="paint7_linear_12_2" x1="136.5" y1="143" x2="136.5" y2="150" gradientUnits="userSpaceOnUse">
<stop stop-color="#BEBEBE"/>
<stop offset="1" stop-color="white"/>
</linearGradient>
<linearGradient id="paint8_linear_12_2" x1="154.5" y1="141" x2="154.5" y2="149" gradientUnits="userSpaceOnUse">
<stop stop-color="#BEBEBE"/>
<stop offset="1" stop-color="white"/>
</linearGradient>
<linearGradient id="paint9_linear_12_2" x1="52.5" y1="141" x2="52.5" y2="149" gradientUnits="userSpaceOnUse">
<stop stop-color="#BEBEBE"/>
<stop offset="1" stop-color="white"/>
</linearGradient>
<linearGradient id="paint10_linear_12_2" x1="69.5" y1="144" x2="69.5" y2="154" gradientUnits="userSpaceOnUse">
<stop stop-color="#BEBEBE"/>
<stop offset="1" stop-color="white"/>
</linearGradient>
<linearGradient id="paint11_linear_12_2" x1="86.5" y1="139" x2="86.5" y2="145" gradientUnits="userSpaceOnUse">
<stop stop-color="#BEBEBE"/>
<stop offset="1" stop-color="white"/>
</linearGradient>
<linearGradient id="paint12_linear_12_2" x1="86.5" y1="154" x2="86.5" y2="160" gradientUnits="userSpaceOnUse">
<stop stop-color="#BEBEBE"/>
<stop offset="1" stop-color="white"/>
</linearGradient>
<linearGradient id="paint13_linear_12_2" x1="120.5" y1="157" x2="120.5" y2="163" gradientUnits="userSpaceOnUse">
<stop stop-color="#BEBEBE"/>
<stop offset="1" stop-color="white"/>
</linearGradient>
<linearGradient id="paint14_linear_12_2" x1="103.5" y1="144" x2="103.5" y2="151" gradientUnits="userSpaceOnUse">
<stop stop-color="#BEBEBE"/>
<stop offset="1" stop-color="white"/>
</linearGradient>
<linearGradient id="paint15_linear_12_2" x1="120.5" y1="141" x2="120.5" y2="149" gradientUnits="userSpaceOnUse">
<stop stop-color="#BEBEBE"/>
<stop offset="1" stop-color="white"/>
</linearGradient>
<linearGradient id="paint16_linear_12_2" x1="136.5" y1="143" x2="136.5" y2="150" gradientUnits="userSpaceOnUse">
<stop stop-color="#BEBEBE"/>
<stop offset="1" stop-color="white"/>
</linearGradient>
<linearGradient id="paint17_linear_12_2" x1="154.5" y1="141" x2="154.5" y2="149" gradientUnits="userSpaceOnUse">
<stop stop-color="#BEBEBE"/>
<stop offset="1" stop-color="white"/>
</linearGradient>
</defs>
</svg>
