<svg width="125" height="100" viewBox="0 0 125 100" fill="none" xmlns="http://www.w3.org/2000/svg">
<path d="M5 69.1439C9 65.3106 19.5 57.6439 28.5 70.1439C36.1023 80.7026 47.6667 73.9772 51.5 70.1439C56 65.6439 64.4 57.1439 74 69.1439C83.6 81.1439 93.3333 74.1439 97 69.1439C100 64.8106 108.6 58.7439 119 69.1439" stroke="white" stroke-width="5" stroke-linecap="round"/>
<path d="M5 56.1439C9 52.3106 19.5 44.6439 28.5 57.1439C36.1023 67.7026 47.6667 60.9772 51.5 57.1439C56 52.6439 64.4 44.1439 74 56.1439C83.6 68.1439 93.3333 61.1439 97 56.1439C100 51.8106 108.6 45.7439 119 56.1439" stroke="white" stroke-width="5" stroke-linecap="round"/>
<path d="M5 43.1439C9 39.3106 19.5 31.6439 28.5 44.1439C36.1023 54.7026 47.6667 47.9772 51.5 44.1439C56 39.6439 64.4 31.1439 74 43.1439C83.6 55.1439 93.3333 48.1439 97 43.1439C100 38.8106 108.6 32.7439 119 43.1439" stroke="white" stroke-width="5" stroke-linecap="round"/>
<path d="M5 30.1439C9 26.3106 19.5 18.6439 28.5 31.1439C36.1023 41.7026 47.6667 34.9772 51.5 31.1439C56 26.6439 64.4 18.1439 74 30.1439C83.6 42.1439 93.3333 35.1439 97 30.1439C100 25.8106 108.6 19.7439 119 30.1439" stroke="white" stroke-width="5" stroke-linecap="round"/>
</svg>
