<svg width="186" height="190" viewBox="0 0 186 190" fill="none" xmlns="http://www.w3.org/2000/svg">
<path fill-rule="evenodd" clip-rule="evenodd" d="M123.431 30.0068C122.913 22.0882 119.514 15.9959 114.496 11.4666C109.095 6.5904 101.896 3.58705 94.5778 1.8859C87.2431 0.180903 79.6424 -0.250573 73.2878 0.126536C70.1083 0.315218 67.2077 0.708218 64.783 1.25975C62.404 1.80089 60.3183 2.53057 58.8906 3.48236C54.3843 6.48657 48.8609 10.2803 44.506 16.2848C40.3669 21.9917 37.3613 29.5772 37.0304 40.1789C28.9152 40.4496 22.4842 42.3989 17.4153 45.4759C11.9432 48.7976 8.17926 53.3603 5.6031 58.2814C0.488872 68.0508 0 79.3466 0 85.6464C0 99.1914 12.8367 118.146 37 118.146H157.517L157.533 118.146C162.842 118.058 170.583 116.349 176.534 111.368C182.6 106.29 186.545 98.0229 184.5 85.4797C184.447 76.6251 180.229 70.8744 174.981 67.3924C170.604 64.4882 165.539 63.1679 161.594 62.7742C161.698 56.5597 160.06 48.3176 154.743 41.6046C148.977 34.3252 139.135 29.1575 123.431 30.0068ZM65.6702 5.16012C63.4554 5.6639 61.9317 6.26235 61.1094 6.81056C56.6157 9.80635 51.6391 13.2627 47.744 18.6332C43.8847 23.9543 41 31.2864 41 42.1465V44.1465H39C30.5526 44.1465 24.2374 46.0139 19.4909 48.8952C14.7443 51.7765 11.4457 55.7451 9.1469 60.1365C4.51113 68.992 4 79.4462 4 85.6464C4 97.1016 15.1633 114.146 37 114.146H157.483C162.174 114.065 168.923 112.522 173.966 108.3C178.874 104.192 182.422 97.3411 180.527 85.9752L180.5 85.812V85.6464C180.5 78.1957 177.072 73.58 172.769 70.7255C168.367 67.8049 163.012 66.7232 159.457 66.646L157.33 66.5997L157.507 64.4803C157.977 58.8368 156.734 50.561 151.607 44.0883C146.576 37.7371 137.536 32.7848 121.67 34.1392L119.5 34.3244V32.1464C119.5 24.3671 116.481 18.6472 111.816 14.4357C107.092 10.1713 100.604 7.39336 93.6722 5.78202C86.7569 4.17452 79.5451 3.76224 73.5247 4.11951C70.5167 4.29802 67.8392 4.66674 65.6702 5.16012Z" fill="white"/>
<rect x="42" y="128" width="4" height="26" rx="2" fill="#D9D9D9"/>
<rect x="65" y="141" width="4" height="47" rx="2" fill="#D9D9D9"/>
<rect x="89" y="164" width="4" height="26" rx="2" fill="#D9D9D9"/>
<rect x="89" y="128" width="4" height="26" rx="2" fill="#D9D9D9"/>
<rect x="145" y="128" width="4" height="26" rx="2" fill="#D9D9D9"/>
<rect x="117" y="135" width="4" height="38" rx="2" fill="#D9D9D9"/>
</svg>
