<svg width="200" height="200" viewBox="0 0 200 200" fill="none" xmlns="http://www.w3.org/2000/svg">
<path d="M156 126.19H52.5C28.5 126.19 22.1667 104.856 22 94.1897C22 83.5231 28.5 61.6897 54.5 59.6897C54.5 34.0897 75.5 26.0231 86 25.1897C100 24.0231 128 27.6897 128 51.6897C158 51.6897 159.167 71.3564 156 81.1897C164.167 79.3564 181 80.9897 183 102.19C185 123.39 165.833 127.023 156 126.19Z" fill="url(#paint0_linear_5_115)"/>
<path d="M151 126.19H47.5C23.5 126.19 17.1667 104.856 17 94.1897C17 83.5231 23.5 61.6897 49.5 59.6897C49.5 34.0897 70.5 26.0231 81 25.1897C95 24.0231 123 27.6897 123 51.6897C153 51.6897 154.167 71.3564 151 81.1897C159.167 79.3564 176 80.9897 178 102.19C180 123.39 160.833 127.023 151 126.19Z" fill="url(#paint1_linear_5_115)"/>
<rect x="47" y="162" width="5" height="27" rx="2.5" transform="rotate(180 47 162)" fill="url(#paint2_linear_5_115)"/>
<rect x="47" y="162" width="5" height="27" rx="2.5" transform="rotate(180 47 162)" fill="black" fill-opacity="0.2"/>
<rect x="64" y="174" width="5" height="35" rx="2.5" transform="rotate(180 64 174)" fill="url(#paint3_linear_5_115)"/>
<rect x="64" y="174" width="5" height="35" rx="2.5" transform="rotate(180 64 174)" fill="black" fill-opacity="0.2"/>
<rect x="81" y="155" width="5" height="20" rx="2.5" transform="rotate(180 81 155)" fill="url(#paint4_linear_5_115)"/>
<rect x="81" y="155" width="5" height="20" rx="2.5" transform="rotate(180 81 155)" fill="black" fill-opacity="0.2"/>
<rect x="98" y="174" width="5" height="25" rx="2.5" transform="rotate(180 98 174)" fill="url(#paint5_linear_5_115)"/>
<rect x="98" y="174" width="5" height="25" rx="2.5" transform="rotate(180 98 174)" fill="black" fill-opacity="0.2"/>
<rect x="115" y="162" width="5" height="27" rx="2.5" transform="rotate(180 115 162)" fill="url(#paint6_linear_5_115)"/>
<rect x="115" y="162" width="5" height="27" rx="2.5" transform="rotate(180 115 162)" fill="black" fill-opacity="0.2"/>
<rect x="131" y="169" width="5" height="25" rx="2.5" transform="rotate(180 131 169)" fill="url(#paint7_linear_5_115)"/>
<rect x="131" y="169" width="5" height="25" rx="2.5" transform="rotate(180 131 169)" fill="black" fill-opacity="0.2"/>
<rect x="149" y="162" width="5" height="27" rx="2.5" transform="rotate(180 149 162)" fill="url(#paint8_linear_5_115)"/>
<rect x="149" y="162" width="5" height="27" rx="2.5" transform="rotate(180 149 162)" fill="black" fill-opacity="0.2"/>
<defs>
<linearGradient id="paint0_linear_5_115" x1="102.573" y1="25" x2="102.573" y2="126.297" gradientUnits="userSpaceOnUse">
<stop stop-color="white"/>
<stop offset="1" stop-color="#B8B8B8"/>
</linearGradient>
<linearGradient id="paint1_linear_5_115" x1="30.5" y1="104.5" x2="150.5" y2="64" gradientUnits="userSpaceOnUse">
<stop stop-color="#D3D3D3"/>
<stop offset="0.61" stop-color="white"/>
</linearGradient>
<linearGradient id="paint2_linear_5_115" x1="49.5" y1="162" x2="49.5" y2="189" gradientUnits="userSpaceOnUse">
<stop stop-color="#BEBEBE"/>
<stop offset="1" stop-color="white"/>
</linearGradient>
<linearGradient id="paint3_linear_5_115" x1="66.5" y1="174" x2="66.5" y2="209" gradientUnits="userSpaceOnUse">
<stop stop-color="#BEBEBE"/>
<stop offset="1" stop-color="white"/>
</linearGradient>
<linearGradient id="paint4_linear_5_115" x1="83.5" y1="155" x2="83.5" y2="175" gradientUnits="userSpaceOnUse">
<stop stop-color="#BEBEBE"/>
<stop offset="1" stop-color="white"/>
</linearGradient>
<linearGradient id="paint5_linear_5_115" x1="100.5" y1="174" x2="100.5" y2="199" gradientUnits="userSpaceOnUse">
<stop stop-color="#BEBEBE"/>
<stop offset="1" stop-color="white"/>
</linearGradient>
<linearGradient id="paint6_linear_5_115" x1="117.5" y1="162" x2="117.5" y2="189" gradientUnits="userSpaceOnUse">
<stop stop-color="#BEBEBE"/>
<stop offset="1" stop-color="white"/>
</linearGradient>
<linearGradient id="paint7_linear_5_115" x1="133.5" y1="169" x2="133.5" y2="194" gradientUnits="userSpaceOnUse">
<stop stop-color="#BEBEBE"/>
<stop offset="1" stop-color="white"/>
</linearGradient>
<linearGradient id="paint8_linear_5_115" x1="151.5" y1="162" x2="151.5" y2="189" gradientUnits="userSpaceOnUse">
<stop stop-color="#BEBEBE"/>
<stop offset="1" stop-color="white"/>
</linearGradient>
</defs>
</svg>
