<svg width="77" height="78" viewBox="0 0 77 78" fill="none" xmlns="http://www.w3.org/2000/svg">
<path fill-rule="evenodd" clip-rule="evenodd" d="M31.5 53C43.3741 53 53 43.3741 53 31.5C53 19.6259 43.3741 10 31.5 10C19.6259 10 10 19.6259 10 31.5C10 43.3741 19.6259 53 31.5 53ZM31.5 63C48.897 63 63 48.897 63 31.5C63 14.103 48.897 0 31.5 0C14.103 0 0 14.103 0 31.5C0 48.897 14.103 63 31.5 63Z" fill="#EFEFEF" fill-opacity="0.933333"/>
<path fill-rule="evenodd" clip-rule="evenodd" d="M68.4645 76.5355L44.4645 52.5355L51.5355 45.4645L75.5355 69.4645C77.4882 71.4171 77.4882 74.5829 75.5355 76.5355C73.5829 78.4882 70.4171 78.4882 68.4645 76.5355Z" fill="#EFEFEF" fill-opacity="0.933333"/>
</svg>
