<svg width="200" height="200" viewBox="0 0 200 200" fill="none" xmlns="http://www.w3.org/2000/svg">
<path d="M156 128.19H52.5C28.5 128.19 22.1667 106.856 22 96.1897C22 85.5231 28.5 63.6897 54.5 61.6897C54.5 36.0897 75.5 28.0231 86 27.1897C100 26.0231 128 29.6897 128 53.6897C158 53.6897 159.167 73.3564 156 83.1897C164.167 81.3564 181 82.9897 183 104.19C185 125.39 165.833 129.023 156 128.19Z" fill="url(#paint0_linear_5_119)"/>
<path d="M151 128.19H47.5C23.5 128.19 17.1667 106.856 17 96.1897C17 85.5231 23.5 63.6897 49.5 61.6897C49.5 36.0897 70.5 28.0231 81 27.1897C95 26.0231 123 29.6897 123 53.6897C153 53.6897 154.167 73.3564 151 83.1897C159.167 81.3564 176 82.9897 178 104.19C180 125.39 160.833 129.023 151 128.19Z" fill="url(#paint1_linear_5_119)"/>
<rect x="73.4103" y="154" width="5" height="20" rx="2.5" transform="rotate(180 73.4103 154)" fill="url(#paint2_linear_5_119)"/>
<rect x="73.4103" y="154" width="5" height="20" rx="2.5" transform="rotate(180 73.4103 154)" fill="black" fill-opacity="0.2"/>
<rect x="63.5001" y="151.165" width="5" height="20" rx="2.5" transform="rotate(-120 63.5001 151.165)" fill="url(#paint3_linear_5_119)"/>
<rect x="63.5001" y="151.165" width="5" height="20" rx="2.5" transform="rotate(-120 63.5001 151.165)" fill="black" fill-opacity="0.2"/>
<rect x="61" y="141.165" width="5" height="20" rx="2.5" transform="rotate(-60 61 141.165)" fill="url(#paint4_linear_5_119)"/>
<rect x="61" y="141.165" width="5" height="20" rx="2.5" transform="rotate(-60 61 141.165)" fill="black" fill-opacity="0.2"/>
<rect x="49.4103" y="171" width="5" height="20" rx="2.5" transform="rotate(180 49.4103 171)" fill="url(#paint5_linear_5_119)"/>
<rect x="49.4103" y="171" width="5" height="20" rx="2.5" transform="rotate(180 49.4103 171)" fill="black" fill-opacity="0.2"/>
<rect x="39.5001" y="168.165" width="5" height="20" rx="2.5" transform="rotate(-120 39.5001 168.165)" fill="url(#paint6_linear_5_119)"/>
<rect x="39.5001" y="168.165" width="5" height="20" rx="2.5" transform="rotate(-120 39.5001 168.165)" fill="black" fill-opacity="0.2"/>
<rect x="37" y="158.165" width="5" height="20" rx="2.5" transform="rotate(-60 37 158.165)" fill="url(#paint7_linear_5_119)"/>
<rect x="37" y="158.165" width="5" height="20" rx="2.5" transform="rotate(-60 37 158.165)" fill="black" fill-opacity="0.2"/>
<rect x="102.41" y="168" width="5" height="20" rx="2.5" transform="rotate(180 102.41 168)" fill="url(#paint8_linear_5_119)"/>
<rect x="102.41" y="168" width="5" height="20" rx="2.5" transform="rotate(180 102.41 168)" fill="black" fill-opacity="0.2"/>
<rect x="92.5001" y="165.165" width="5" height="20" rx="2.5" transform="rotate(-120 92.5001 165.165)" fill="url(#paint9_linear_5_119)"/>
<rect x="92.5001" y="165.165" width="5" height="20" rx="2.5" transform="rotate(-120 92.5001 165.165)" fill="black" fill-opacity="0.2"/>
<rect x="90" y="155.165" width="5" height="20" rx="2.5" transform="rotate(-60 90 155.165)" fill="url(#paint10_linear_5_119)"/>
<rect x="90" y="155.165" width="5" height="20" rx="2.5" transform="rotate(-60 90 155.165)" fill="black" fill-opacity="0.2"/>
<rect x="131.41" y="154" width="5" height="20" rx="2.5" transform="rotate(180 131.41 154)" fill="url(#paint11_linear_5_119)"/>
<rect x="131.41" y="154" width="5" height="20" rx="2.5" transform="rotate(180 131.41 154)" fill="black" fill-opacity="0.2"/>
<rect x="121.5" y="151.165" width="5" height="20" rx="2.5" transform="rotate(-120 121.5 151.165)" fill="url(#paint12_linear_5_119)"/>
<rect x="121.5" y="151.165" width="5" height="20" rx="2.5" transform="rotate(-120 121.5 151.165)" fill="black" fill-opacity="0.2"/>
<rect x="119" y="141.165" width="5" height="20" rx="2.5" transform="rotate(-60 119 141.165)" fill="url(#paint13_linear_5_119)"/>
<rect x="119" y="141.165" width="5" height="20" rx="2.5" transform="rotate(-60 119 141.165)" fill="black" fill-opacity="0.2"/>
<rect x="151.41" y="173" width="5" height="20" rx="2.5" transform="rotate(180 151.41 173)" fill="url(#paint14_linear_5_119)"/>
<rect x="151.41" y="173" width="5" height="20" rx="2.5" transform="rotate(180 151.41 173)" fill="black" fill-opacity="0.2"/>
<rect x="141.5" y="170.165" width="5" height="20" rx="2.5" transform="rotate(-120 141.5 170.165)" fill="url(#paint15_linear_5_119)"/>
<rect x="141.5" y="170.165" width="5" height="20" rx="2.5" transform="rotate(-120 141.5 170.165)" fill="black" fill-opacity="0.2"/>
<rect x="139" y="160.165" width="5" height="20" rx="2.5" transform="rotate(-60 139 160.165)" fill="url(#paint16_linear_5_119)"/>
<rect x="139" y="160.165" width="5" height="20" rx="2.5" transform="rotate(-60 139 160.165)" fill="black" fill-opacity="0.2"/>
<circle cx="44.5" cy="139.5" r="2.5" fill="#D9D9D9"/>
<circle cx="76.5" cy="162.5" r="2.5" fill="#D9D9D9"/>
<circle cx="99.5" cy="137.5" r="2.5" fill="#D9D9D9"/>
<circle cx="126.5" cy="166.5" r="2.5" fill="#D9D9D9"/>
<circle cx="154.5" cy="144.5" r="2.5" fill="#D9D9D9"/>
<defs>
<linearGradient id="paint0_linear_5_119" x1="102.573" y1="27" x2="102.573" y2="128.297" gradientUnits="userSpaceOnUse">
<stop stop-color="white"/>
<stop offset="1" stop-color="#B8B8B8"/>
</linearGradient>
<linearGradient id="paint1_linear_5_119" x1="30.5" y1="106.5" x2="150.5" y2="66" gradientUnits="userSpaceOnUse">
<stop stop-color="#D3D3D3"/>
<stop offset="0.61" stop-color="white"/>
</linearGradient>
<linearGradient id="paint2_linear_5_119" x1="75.9103" y1="154" x2="75.9103" y2="174" gradientUnits="userSpaceOnUse">
<stop stop-color="#CCCCCC"/>
<stop offset="0.34" stop-color="white"/>
</linearGradient>
<linearGradient id="paint3_linear_5_119" x1="66.0001" y1="151.165" x2="66.0001" y2="171.165" gradientUnits="userSpaceOnUse">
<stop stop-color="#CCCCCC"/>
<stop offset="0.34" stop-color="white"/>
</linearGradient>
<linearGradient id="paint4_linear_5_119" x1="63.5" y1="141.165" x2="63.5" y2="161.165" gradientUnits="userSpaceOnUse">
<stop stop-color="#CCCCCC"/>
<stop offset="0.34" stop-color="white"/>
</linearGradient>
<linearGradient id="paint5_linear_5_119" x1="51.9103" y1="171" x2="51.9103" y2="191" gradientUnits="userSpaceOnUse">
<stop stop-color="#CCCCCC"/>
<stop offset="0.34" stop-color="white"/>
</linearGradient>
<linearGradient id="paint6_linear_5_119" x1="42.0001" y1="168.165" x2="42.0001" y2="188.165" gradientUnits="userSpaceOnUse">
<stop stop-color="#CCCCCC"/>
<stop offset="0.34" stop-color="white"/>
</linearGradient>
<linearGradient id="paint7_linear_5_119" x1="39.5" y1="158.165" x2="39.5" y2="178.165" gradientUnits="userSpaceOnUse">
<stop stop-color="#CCCCCC"/>
<stop offset="0.34" stop-color="white"/>
</linearGradient>
<linearGradient id="paint8_linear_5_119" x1="104.91" y1="168" x2="104.91" y2="188" gradientUnits="userSpaceOnUse">
<stop stop-color="#CCCCCC"/>
<stop offset="0.34" stop-color="white"/>
</linearGradient>
<linearGradient id="paint9_linear_5_119" x1="95.0001" y1="165.165" x2="95.0001" y2="185.165" gradientUnits="userSpaceOnUse">
<stop stop-color="#CCCCCC"/>
<stop offset="0.34" stop-color="white"/>
</linearGradient>
<linearGradient id="paint10_linear_5_119" x1="92.5" y1="155.165" x2="92.5" y2="175.165" gradientUnits="userSpaceOnUse">
<stop stop-color="#CCCCCC"/>
<stop offset="0.34" stop-color="white"/>
</linearGradient>
<linearGradient id="paint11_linear_5_119" x1="133.91" y1="154" x2="133.91" y2="174" gradientUnits="userSpaceOnUse">
<stop stop-color="#CCCCCC"/>
<stop offset="0.34" stop-color="white"/>
</linearGradient>
<linearGradient id="paint12_linear_5_119" x1="124" y1="151.165" x2="124" y2="171.165" gradientUnits="userSpaceOnUse">
<stop stop-color="#CCCCCC"/>
<stop offset="0.34" stop-color="white"/>
</linearGradient>
<linearGradient id="paint13_linear_5_119" x1="121.5" y1="141.165" x2="121.5" y2="161.165" gradientUnits="userSpaceOnUse">
<stop stop-color="#CCCCCC"/>
<stop offset="0.34" stop-color="white"/>
</linearGradient>
<linearGradient id="paint14_linear_5_119" x1="153.91" y1="173" x2="153.91" y2="193" gradientUnits="userSpaceOnUse">
<stop stop-color="#CCCCCC"/>
<stop offset="0.34" stop-color="white"/>
</linearGradient>
<linearGradient id="paint15_linear_5_119" x1="144" y1="170.165" x2="144" y2="190.165" gradientUnits="userSpaceOnUse">
<stop stop-color="#CCCCCC"/>
<stop offset="0.34" stop-color="white"/>
</linearGradient>
<linearGradient id="paint16_linear_5_119" x1="141.5" y1="160.165" x2="141.5" y2="180.165" gradientUnits="userSpaceOnUse">
<stop stop-color="#CCCCCC"/>
<stop offset="0.34" stop-color="white"/>
</linearGradient>
</defs>
</svg>
