<svg width="125" height="100" viewBox="0 0 125 100" fill="none" xmlns="http://www.w3.org/2000/svg">
<path d="M15 40H67.0621C72.3913 40 81 39.2257 81 29.2458C81 19.2659 71.7081 17.6312 67.0621 18.0614C63.5093 18.2048 56.4037 20.6424 56.4037 29.2458" stroke="white" stroke-width="5" stroke-linecap="round"/>
<path d="M15 60H67.0621C72.3913 60 81 60.7743 81 70.7542C81 80.7341 71.7081 82.3688 67.0621 81.9386C63.5093 81.7952 56.4037 79.3576 56.4037 70.7542" stroke="white" stroke-width="5" stroke-linecap="round"/>
<path d="M6 50H102.354C108.719 50 119 49.1201 119 37.7793C119 26.4385 107.903 24.581 102.354 25.0698C98.1111 25.2327 89.625 28.0028 89.625 37.7793" stroke="white" stroke-width="5" stroke-linecap="round"/>
</svg>
